<svg width="144" height="32" viewBox="0 0 144 32" fill="none" xmlns="http://www.w3.org/2000/svg">
<path d="M5.808 26V12.632H0.864V10.304H13.536V12.632H8.592V26H5.808ZM15.3986 26V9.056H18.1826V13.424L18.0146 15.944H18.0866C18.5986 15.4 19.1906 14.928 19.8626 14.528C20.5506 14.128 21.3426 13.928 22.2386 13.928C23.5986 13.928 24.5986 14.344 25.2386 15.176C25.8786 16.008 26.1986 17.184 26.1986 18.704V26H23.4146V19.064C23.4146 18.12 23.2466 17.424 22.9106 16.976C22.5746 16.528 22.0066 16.304 21.2066 16.304C20.6306 16.304 20.1186 16.44 19.6706 16.712C19.2226 16.984 18.7266 17.4 18.1826 17.96V26H15.3986ZM34.7813 26.288C33.5813 26.288 32.4933 26.048 31.5173 25.568C30.5412 25.072 29.7652 24.368 29.1892 23.456C28.6133 22.528 28.3253 21.408 28.3253 20.096C28.3253 18.816 28.6133 17.72 29.1892 16.808C29.7652 15.88 30.5173 15.168 31.4453 14.672C32.3733 14.176 33.3653 13.928 34.4213 13.928C35.5893 13.928 36.5733 14.168 37.3733 14.648C38.1893 15.128 38.8053 15.792 39.2213 16.64C39.6533 17.472 39.8693 18.432 39.8693 19.52C39.8693 19.792 39.8533 20.056 39.8213 20.312C39.8053 20.552 39.7813 20.752 39.7492 20.912H30.3173V18.944H37.9733L37.4453 19.568C37.4453 18.4 37.1813 17.528 36.6533 16.952C36.1413 16.36 35.4213 16.064 34.4933 16.064C33.8373 16.064 33.2453 16.216 32.7173 16.52C32.2053 16.824 31.7973 17.28 31.4933 17.888C31.1893 18.48 31.0373 19.216 31.0373 20.096C31.0373 21.008 31.2053 21.76 31.5413 22.352C31.8933 22.944 32.3733 23.392 32.9813 23.696C33.6053 24 34.3253 24.152 35.1413 24.152C35.7653 24.152 36.3413 24.064 36.8693 23.888C37.3973 23.712 37.9253 23.472 38.4533 23.168L39.3893 24.896C38.7653 25.296 38.0613 25.632 37.2773 25.904C36.4933 26.16 35.6613 26.288 34.7813 26.288ZM55.5945 26V10.304H59.7225C61.2585 10.304 62.5785 10.592 63.6825 11.168C64.8025 11.744 65.6505 12.608 66.2265 13.76C66.8185 14.912 67.1145 16.352 67.1145 18.08C67.1145 19.824 66.8185 21.288 66.2265 22.472C65.6505 23.64 64.8185 24.52 63.7305 25.112C62.6425 25.704 61.3545 26 59.8665 26H55.5945ZM58.3785 23.744H59.5545C60.5625 23.744 61.4105 23.544 62.0985 23.144C62.8025 22.728 63.3385 22.104 63.7065 21.272C64.0745 20.44 64.2585 19.376 64.2585 18.08C64.2585 16.8 64.0745 15.752 63.7065 14.936C63.3385 14.12 62.8025 13.52 62.0985 13.136C61.4105 12.752 60.5625 12.56 59.5545 12.56H58.3785V23.744ZM75.0731 26.288C73.8731 26.288 72.7851 26.048 71.8091 25.568C70.8331 25.072 70.0571 24.368 69.4811 23.456C68.9051 22.528 68.6171 21.408 68.6171 20.096C68.6171 18.816 68.9051 17.72 69.4811 16.808C70.0571 15.88 70.8091 15.168 71.7371 14.672C72.6651 14.176 73.6571 13.928 74.7131 13.928C75.8811 13.928 76.8651 14.168 77.6651 14.648C78.4811 15.128 79.0971 15.792 79.5131 16.64C79.9451 17.472 80.1611 18.432 80.1611 19.52C80.1611 19.792 80.1451 20.056 80.1131 20.312C80.0971 20.552 80.0731 20.752 80.0411 20.912H70.6091V18.944H78.2651L77.7371 19.568C77.7371 18.4 77.4731 17.528 76.9451 16.952C76.4331 16.36 75.7131 16.064 74.7851 16.064C74.1291 16.064 73.5371 16.216 73.0091 16.52C72.4971 16.824 72.0891 17.28 71.7851 17.888C71.4811 18.48 71.3291 19.216 71.3291 20.096C71.3291 21.008 71.4971 21.76 71.8331 22.352C72.1851 22.944 72.6651 23.392 73.2731 23.696C73.8971 24 74.6171 24.152 75.4331 24.152C76.0571 24.152 76.6331 24.064 77.1611 23.888C77.6891 23.712 78.2171 23.472 78.7451 23.168L79.6811 24.896C79.0571 25.296 78.3531 25.632 77.5691 25.904C76.7851 26.16 75.9531 26.288 75.0731 26.288ZM86.2717 26L81.5677 14.216H84.3517L86.6317 20.336C86.8397 20.912 87.0397 21.496 87.2317 22.088C87.4397 22.68 87.6317 23.28 87.8077 23.888H87.9037C88.0957 23.28 88.2877 22.68 88.4797 22.088C88.6717 21.496 88.8717 20.912 89.0797 20.336L91.3597 14.216H93.9997L89.4157 26H86.2717ZM101.214 26.288C100.542 26.288 99.9744 26.056 99.5104 25.592C99.0624 25.128 98.8384 24.552 98.8384 23.864C98.8384 23.16 99.0624 22.584 99.5104 22.136C99.9744 21.672 100.542 21.44 101.214 21.44C101.902 21.44 102.47 21.672 102.918 22.136C103.366 22.584 103.59 23.16 103.59 23.864C103.59 24.552 103.366 25.128 102.918 25.592C102.47 26.056 101.902 26.288 101.214 26.288Z" fill="white"/>
<path d="M121.808 4.4695C122.899 3.64313 124.231 3.19742 125.6 3.2007C126.073 3.1901 126.54 3.29891 126.96 3.51705C127.379 3.7352 127.737 4.05563 128 4.4487C128.263 4.05563 128.621 3.7352 129.04 3.51705C129.46 3.29891 129.927 3.1901 130.4 3.2007C131.769 3.19742 133.101 3.64313 134.192 4.4695C135.032 5.1223 135.68 6.0263 135.909 7.1191C136.434 7.1591 136.914 7.3767 137.317 7.7047C137.928 8.2007 138.373 8.9447 138.653 9.7319C139.091 10.9559 139.21 12.5159 138.755 13.8439C138.87 13.8983 138.984 13.9623 139.094 14.0359C139.534 14.3287 139.869 14.7479 140.115 15.2423C140.6 16.2103 140.8 17.5607 140.8 19.2007C140.8 21.0263 140.104 22.2519 139.221 23.0087C138.732 23.4275 138.156 23.731 137.534 23.8967C137.374 24.7895 136.926 25.8231 136.224 26.6999C135.312 27.8439 133.898 28.8007 132 28.8007C130.496 28.8007 129.299 27.9687 128.522 27.1527C128.336 26.9579 128.162 26.7522 128 26.5367C127.839 26.7522 127.664 26.9579 127.478 27.1527C126.701 27.9687 125.506 28.8007 124 28.8007C122.102 28.8007 120.69 27.8439 119.776 26.6999C119.12 25.8848 118.67 24.9231 118.466 23.8967C117.844 23.731 117.268 23.4275 116.779 23.0087C115.896 22.2519 115.2 21.0247 115.2 19.2007C115.2 17.5607 115.402 16.2087 115.885 15.2423C116.114 14.7574 116.466 14.341 116.906 14.0343C117.014 13.9628 117.127 13.8996 117.245 13.8455C116.79 12.5143 116.909 10.9559 117.347 9.7319C117.627 8.9447 118.072 8.2007 118.683 7.7047C119.086 7.3767 119.566 7.1607 120.091 7.1191C120.322 6.0263 120.968 5.1223 121.808 4.4695ZM127.2 7.2007V7.1847L127.197 7.1047C127.173 6.68759 127.09 6.27597 126.95 5.8823C126.851 5.58512 126.681 5.31623 126.456 5.0983C126.22 4.89251 125.913 4.7859 125.6 4.8007C124.587 4.79723 123.601 5.12416 122.79 5.7319C122.048 6.3095 121.6 7.0919 121.6 8.0007C121.6 8.1274 121.57 8.25226 121.512 8.365C121.454 8.47775 121.37 8.57516 121.268 8.64921C121.165 8.72326 121.046 8.77184 120.921 8.79095C120.795 8.81005 120.667 8.79914 120.547 8.7591C120.246 8.6599 119.978 8.7159 119.691 8.9463C119.378 9.2023 119.072 9.6567 118.853 10.2695C118.406 11.5207 118.453 13.0359 119.066 13.9575C119.153 14.0888 119.2 14.243 119.2 14.4007H120.4C121.355 14.4007 122.27 14.78 122.946 15.4551C123.621 16.1303 124 17.0459 124 18.0007V18.5367C124.534 18.7254 124.984 19.0968 125.27 19.5851C125.557 20.0734 125.661 20.6473 125.565 21.2053C125.47 21.7633 125.18 22.2695 124.747 22.6344C124.314 22.9993 123.766 23.1994 123.2 23.1994C122.634 23.1994 122.086 22.9993 121.653 22.6344C121.22 22.2695 120.93 21.7633 120.835 21.2053C120.739 20.6473 120.843 20.0734 121.13 19.5851C121.416 19.0968 121.866 18.7254 122.4 18.5367V18.0007C122.4 16.8967 121.504 16.0007 120.4 16.0007H117.6C117.504 16.0005 117.41 15.9832 117.32 15.9495L117.315 15.9591C116.998 16.5911 116.8 17.6407 116.8 19.2007C116.8 20.5751 117.304 21.3495 117.821 21.7927C118.376 22.2695 118.992 22.4007 119.2 22.4007C119.412 22.4007 119.616 22.485 119.766 22.635C119.916 22.785 120 22.9885 120 23.2007C120 23.7895 120.32 24.8183 121.024 25.7015C121.71 26.5575 122.698 27.2007 124 27.2007C124.896 27.2007 125.699 26.6999 126.32 26.0487C126.626 25.7287 126.864 25.3975 127.019 25.1255C127.09 25.0049 127.15 24.8786 127.2 24.7479V12.0007H125.464C125.275 12.5345 124.904 12.9843 124.416 13.2708C123.927 13.5573 123.353 13.6619 122.795 13.5661C122.237 13.4704 121.731 13.1805 121.366 12.7476C121.001 12.3148 120.801 11.7669 120.801 11.2007C120.801 10.6346 121.001 10.0866 121.366 9.65378C121.731 9.22092 122.237 8.931 122.795 8.83527C123.353 8.73953 123.927 8.84414 124.416 9.1306C124.904 9.41706 125.275 9.86693 125.464 10.4007H127.2V7.2007ZM128.8 23.1991V24.7463C128.85 24.877 128.91 25.0033 128.981 25.1239C129.138 25.3959 129.374 25.7271 129.678 26.0471C130.301 26.6983 131.106 27.1991 132 27.1991C133.302 27.1991 134.29 26.5559 134.976 25.6999C135.68 24.8167 136 23.7879 136 23.1991C136 22.9869 136.084 22.7834 136.234 22.6334C136.384 22.4834 136.588 22.3991 136.8 22.3991C137.008 22.3991 137.624 22.2679 138.179 21.7911C138.696 21.3479 139.2 20.5735 139.2 19.1991C139.2 17.6391 139 16.5911 138.685 15.9575C138.579 15.7216 138.414 15.5174 138.205 15.3655C138.025 15.2503 137.814 15.1929 137.6 15.2007C137.455 15.2006 137.313 15.1613 137.189 15.0869C137.065 15.0125 136.963 14.9059 136.895 14.7783C136.827 14.6507 136.794 14.507 136.801 14.3625C136.808 14.2179 136.854 14.078 136.934 13.9575C137.549 13.0359 137.594 11.5207 137.147 10.2695C136.928 9.6567 136.622 9.2007 136.309 8.9463C136.022 8.7159 135.754 8.6583 135.453 8.7591C135.333 8.79914 135.205 8.81005 135.079 8.79095C134.954 8.77184 134.835 8.72326 134.732 8.64921C134.63 8.57516 134.546 8.47775 134.488 8.365C134.43 8.25226 134.4 8.1274 134.4 8.0007C134.4 7.0919 133.952 6.3095 133.208 5.7319C132.398 5.12449 131.412 4.79758 130.4 4.8007C130.087 4.7859 129.78 4.89251 129.544 5.0983C129.318 5.31598 129.148 5.58491 129.048 5.8823C128.896 6.30023 128.812 6.74004 128.8 7.1847V21.6007H130C131.104 21.6007 132 20.7047 132 19.6007V16.6647C131.466 16.476 131.016 16.1046 130.73 15.6163C130.443 15.128 130.339 14.5541 130.435 13.9961C130.53 13.4381 130.82 12.9319 131.253 12.567C131.686 12.2021 132.234 12.002 132.8 12.002C133.366 12.002 133.914 12.2021 134.347 12.567C134.78 12.9319 135.07 13.4381 135.165 13.9961C135.261 14.5541 135.157 15.128 134.87 15.6163C134.584 16.1046 134.134 16.476 133.6 16.6647V19.6007C133.6 20.5555 133.221 21.4712 132.546 22.1463C131.87 22.8214 130.955 23.2007 130 23.2007H128.8V23.1991ZM122.4 11.2007C122.4 11.4129 122.484 11.6164 122.634 11.7664C122.784 11.9164 122.988 12.0007 123.2 12.0007C123.412 12.0007 123.616 11.9164 123.766 11.7664C123.916 11.6164 124 11.4129 124 11.2007C124 10.9885 123.916 10.785 123.766 10.635C123.616 10.485 123.412 10.4007 123.2 10.4007C122.988 10.4007 122.784 10.485 122.634 10.635C122.484 10.785 122.4 10.9885 122.4 11.2007ZM132.8 15.2007C133.012 15.2007 133.216 15.1164 133.366 14.9664C133.516 14.8164 133.6 14.6129 133.6 14.4007C133.6 14.1885 133.516 13.985 133.366 13.835C133.216 13.685 133.012 13.6007 132.8 13.6007C132.588 13.6007 132.384 13.685 132.234 13.835C132.084 13.985 132 14.1885 132 14.4007C132 14.6129 132.084 14.8164 132.234 14.9664C132.384 15.1164 132.588 15.2007 132.8 15.2007ZM123.2 20.0007C122.988 20.0007 122.784 20.085 122.634 20.235C122.484 20.385 122.4 20.5885 122.4 20.8007C122.4 21.0129 122.484 21.2164 122.634 21.3664C122.784 21.5164 122.988 21.6007 123.2 21.6007C123.412 21.6007 123.616 21.5164 123.766 21.3664C123.916 21.2164 124 21.0129 124 20.8007C124 20.5885 123.916 20.385 123.766 20.235C123.616 20.085 123.412 20.0007 123.2 20.0007Z" fill="#EFAA00"/>
</svg>
